<mxfile host="65bd71144e">
    <diagram id="KyVGrQpdg-2cfJXGxOOw" name="Page-1">
        <mxGraphModel dx="1646" dy="2007" grid="1" gridSize="10" guides="1" tooltips="1" connect="1" arrows="1" fold="1" page="1" pageScale="1" pageWidth="850" pageHeight="1100" math="0" shadow="0">
            <root>
                <mxCell id="0"/>
                <mxCell id="1" parent="0"/>
                <mxCell id="2" value="aircraft.py" style="shape=folder;fontStyle=1;tabWidth=110;tabHeight=30;tabPosition=left;html=1;boundedLbl=1;labelInHeader=1;container=1;collapsible=0;" parent="1" vertex="1">
                    <mxGeometry x="-150" y="-30" width="1170" height="850" as="geometry"/>
                </mxCell>
                <mxCell id="3" value="" style="html=1;strokeColor=none;resizeWidth=1;resizeHeight=1;fillColor=none;part=1;connectable=0;allowArrows=0;deletable=0;" parent="2" vertex="1">
                    <mxGeometry width="1170" height="595" relative="1" as="geometry">
                        <mxPoint y="30" as="offset"/>
                    </mxGeometry>
                </mxCell>
                <mxCell id="32" value="&lt;div&gt;Creates&lt;/div&gt;" style="endArrow=open;endSize=12;dashed=1;html=1;rounded=0;entryX=1.004;entryY=0.115;entryDx=0;entryDy=0;entryPerimeter=0;exitX=-0.062;exitY=0.017;exitDx=0;exitDy=0;exitPerimeter=0;" parent="2" source="30" target="18" edge="1">
                    <mxGeometry width="160" relative="1" as="geometry">
                        <mxPoint x="910.0000000000002" y="307.21739130434776" as="sourcePoint"/>
                        <mxPoint x="830" y="330" as="targetPoint"/>
                    </mxGeometry>
                </mxCell>
                <mxCell id="12" value="Aircraft" style="swimlane;fontStyle=0;childLayout=stackLayout;horizontal=1;startSize=26;fillColor=none;horizontalStack=0;resizeParent=1;resizeParentMax=0;resizeLast=0;collapsible=1;marginBottom=0;whiteSpace=wrap;html=1;" parent="2" vertex="1">
                    <mxGeometry x="60" y="100" width="610" height="364" as="geometry"/>
                </mxCell>
                <mxCell id="13" value="+ name: const string" style="text;strokeColor=none;fillColor=none;align=left;verticalAlign=top;spacingLeft=4;spacingRight=4;overflow=hidden;rotatable=0;points=[[0,0.5],[1,0.5]];portConstraint=eastwest;whiteSpace=wrap;html=1;" parent="12" vertex="1">
                    <mxGeometry y="26" width="610" height="26" as="geometry"/>
                </mxCell>
                <mxCell id="14" value="+ type: const AircraftType" style="text;strokeColor=none;fillColor=none;align=left;verticalAlign=top;spacingLeft=4;spacingRight=4;overflow=hidden;rotatable=0;points=[[0,0.5],[1,0.5]];portConstraint=eastwest;whiteSpace=wrap;html=1;" parent="12" vertex="1">
                    <mxGeometry y="52" width="610" height="26" as="geometry"/>
                </mxCell>
                <mxCell id="33" value="+ status: AircraftStatus" style="text;strokeColor=none;fillColor=none;align=left;verticalAlign=top;spacingLeft=4;spacingRight=4;overflow=hidden;rotatable=0;points=[[0,0.5],[1,0.5]];portConstraint=eastwest;whiteSpace=wrap;html=1;" parent="12" vertex="1">
                    <mxGeometry y="78" width="610" height="26" as="geometry"/>
                </mxCell>
                <mxCell id="43" value="+ location: Union[Airport | None]" style="text;strokeColor=none;fillColor=none;align=left;verticalAlign=top;spacingLeft=4;spacingRight=4;overflow=hidden;rotatable=0;points=[[0,0.5],[1,0.5]];portConstraint=eastwest;whiteSpace=wrap;html=1;" parent="12" vertex="1">
                    <mxGeometry y="104" width="610" height="26" as="geometry"/>
                </mxCell>
                <mxCell id="16" value="+ tail_number: const string" style="text;strokeColor=none;fillColor=none;align=left;verticalAlign=top;spacingLeft=4;spacingRight=4;overflow=hidden;rotatable=0;points=[[0,0.5],[1,0.5]];portConstraint=eastwest;whiteSpace=wrap;html=1;" parent="12" vertex="1">
                    <mxGeometry y="130" width="610" height="26" as="geometry"/>
                </mxCell>
                <mxCell id="17" value="+ passenger_capacity: const int" style="text;strokeColor=none;fillColor=none;align=left;verticalAlign=top;spacingLeft=4;spacingRight=4;overflow=hidden;rotatable=0;points=[[0,0.5],[1,0.5]];portConstraint=eastwest;whiteSpace=wrap;html=1;" parent="12" vertex="1">
                    <mxGeometry y="156" width="610" height="26" as="geometry"/>
                </mxCell>
                <mxCell id="18" value="+ cruise_speed: const int" style="text;strokeColor=none;fillColor=none;align=left;verticalAlign=top;spacingLeft=4;spacingRight=4;overflow=hidden;rotatable=0;points=[[0,0.5],[1,0.5]];portConstraint=eastwest;whiteSpace=wrap;html=1;" parent="12" vertex="1">
                    <mxGeometry y="182" width="610" height="26" as="geometry"/>
                </mxCell>
                <mxCell id="19" value="+ fuel_level: int" style="text;strokeColor=none;fillColor=none;align=left;verticalAlign=top;spacingLeft=4;spacingRight=4;overflow=hidden;rotatable=0;points=[[0,0.5],[1,0.5]];portConstraint=eastwest;whiteSpace=wrap;html=1;" parent="12" vertex="1">
                    <mxGeometry y="208" width="610" height="26" as="geometry"/>
                </mxCell>
                <mxCell id="20" value="+ fuel_capacity: const int" style="text;strokeColor=none;fillColor=none;align=left;verticalAlign=top;spacingLeft=4;spacingRight=4;overflow=hidden;rotatable=0;points=[[0,0.5],[1,0.5]];portConstraint=eastwest;whiteSpace=wrap;html=1;" parent="12" vertex="1">
                    <mxGeometry y="234" width="610" height="26" as="geometry"/>
                </mxCell>
                <mxCell id="22" value="+ fuel_efficiency: const int" style="text;strokeColor=none;fillColor=none;align=left;verticalAlign=top;spacingLeft=4;spacingRight=4;overflow=hidden;rotatable=0;points=[[0,0.5],[1,0.5]];portConstraint=eastwest;whiteSpace=wrap;html=1;" parent="12" vertex="1">
                    <mxGeometry y="260" width="610" height="26" as="geometry"/>
                </mxCell>
                <mxCell id="44" value="+ wait_timer: int" style="text;strokeColor=none;fillColor=none;align=left;verticalAlign=top;spacingLeft=4;spacingRight=4;overflow=hidden;rotatable=0;points=[[0,0.5],[1,0.5]];portConstraint=eastwest;whiteSpace=wrap;html=1;" parent="12" vertex="1">
                    <mxGeometry y="286" width="610" height="26" as="geometry"/>
                </mxCell>
                <mxCell id="21" value="+ max_range: const int" style="text;strokeColor=none;fillColor=none;align=left;verticalAlign=top;spacingLeft=4;spacingRight=4;overflow=hidden;rotatable=0;points=[[0,0.5],[1,0.5]];portConstraint=eastwest;whiteSpace=wrap;html=1;" parent="12" vertex="1">
                    <mxGeometry y="312" width="610" height="26" as="geometry"/>
                </mxCell>
                <mxCell id="23" value="+ __init__(self, name, type, home_airport, passenger_capacity, cruise_speed, max_range, max_altitude): None" style="text;strokeColor=default;fillColor=none;align=left;verticalAlign=top;spacingLeft=4;spacingRight=4;overflow=hidden;rotatable=0;points=[[0,0.5],[1,0.5]];portConstraint=eastwest;whiteSpace=wrap;html=1;" parent="12" vertex="1">
                    <mxGeometry y="338" width="610" height="26" as="geometry"/>
                </mxCell>
                <mxCell id="31" value="&lt;div&gt;Defines API&lt;/div&gt;" style="endArrow=open;endSize=12;dashed=1;html=1;rounded=0;exitX=0.5;exitY=0;exitDx=0;exitDy=0;entryX=0.512;entryY=1.192;entryDx=0;entryDy=0;entryPerimeter=0;" parent="2" source="24" target="30" edge="1">
                    <mxGeometry width="160" relative="1" as="geometry">
                        <mxPoint x="990" y="428" as="sourcePoint"/>
                        <mxPoint x="1150" y="428" as="targetPoint"/>
                    </mxGeometry>
                </mxCell>
                <mxCell id="24" value="enum AircraftType" style="swimlane;fontStyle=0;childLayout=stackLayout;horizontal=1;startSize=26;fillColor=none;horizontalStack=0;resizeParent=1;resizeParentMax=0;resizeLast=0;collapsible=1;marginBottom=0;whiteSpace=wrap;html=1;" parent="2" vertex="1">
                    <mxGeometry x="865" y="468" width="140" height="132" as="geometry"/>
                </mxCell>
                <mxCell id="25" value="Boeing_737_600" style="text;strokeColor=none;fillColor=none;align=left;verticalAlign=top;spacingLeft=4;spacingRight=4;overflow=hidden;rotatable=0;points=[[0,0.5],[1,0.5]];portConstraint=eastwest;whiteSpace=wrap;html=1;" parent="24" vertex="1">
                    <mxGeometry y="26" width="140" height="26" as="geometry"/>
                </mxCell>
                <mxCell id="26" value="Boeing_737_800" style="text;strokeColor=none;fillColor=none;align=left;verticalAlign=top;spacingLeft=4;spacingRight=4;overflow=hidden;rotatable=0;points=[[0,0.5],[1,0.5]];portConstraint=eastwest;whiteSpace=wrap;html=1;" parent="24" vertex="1">
                    <mxGeometry y="52" width="140" height="28" as="geometry"/>
                </mxCell>
                <mxCell id="27" value="Airbus_A200_100" style="text;strokeColor=none;fillColor=none;align=left;verticalAlign=top;spacingLeft=4;spacingRight=4;overflow=hidden;rotatable=0;points=[[0,0.5],[1,0.5]];portConstraint=eastwest;whiteSpace=wrap;html=1;" parent="24" vertex="1">
                    <mxGeometry y="80" width="140" height="26" as="geometry"/>
                </mxCell>
                <mxCell id="28" value="Airbus_A220_300" style="text;strokeColor=none;fillColor=none;align=left;verticalAlign=top;spacingLeft=4;spacingRight=4;overflow=hidden;rotatable=0;points=[[0,0.5],[1,0.5]];portConstraint=eastwest;whiteSpace=wrap;html=1;" parent="24" vertex="1">
                    <mxGeometry y="106" width="140" height="26" as="geometry"/>
                </mxCell>
                <mxCell id="29" value="AircraftFactory" style="swimlane;fontStyle=0;childLayout=stackLayout;horizontal=1;startSize=26;fillColor=none;horizontalStack=0;resizeParent=1;resizeParentMax=0;resizeLast=0;collapsible=1;marginBottom=0;whiteSpace=wrap;html=1;" parent="2" vertex="1">
                    <mxGeometry x="840" y="230" width="190" height="52" as="geometry"/>
                </mxCell>
                <mxCell id="30" value="+ create(AircraftType): Aircraft" style="text;strokeColor=none;fillColor=none;align=left;verticalAlign=top;spacingLeft=4;spacingRight=4;overflow=hidden;rotatable=0;points=[[0,0.5],[1,0.5]];portConstraint=eastwest;whiteSpace=wrap;html=1;" parent="29" vertex="1">
                    <mxGeometry y="26" width="190" height="26" as="geometry"/>
                </mxCell>
                <mxCell id="34" value="enum AircraftStatus" style="swimlane;fontStyle=0;childLayout=stackLayout;horizontal=1;startSize=26;fillColor=none;horizontalStack=0;resizeParent=1;resizeParentMax=0;resizeLast=0;collapsible=1;marginBottom=0;whiteSpace=wrap;html=1;" parent="2" vertex="1">
                    <mxGeometry x="60" y="530" width="220" height="210" as="geometry"/>
                </mxCell>
                <mxCell id="36" value="AVAILABLE" style="text;strokeColor=none;fillColor=none;align=left;verticalAlign=top;spacingLeft=4;spacingRight=4;overflow=hidden;rotatable=0;points=[[0,0.5],[1,0.5]];portConstraint=eastwest;whiteSpace=wrap;html=1;" parent="34" vertex="1">
                    <mxGeometry y="26" width="220" height="28" as="geometry"/>
                </mxCell>
                <mxCell id="37" value="IN_MAINTENANCE" style="text;strokeColor=none;fillColor=none;align=left;verticalAlign=top;spacingLeft=4;spacingRight=4;overflow=hidden;rotatable=0;points=[[0,0.5],[1,0.5]];portConstraint=eastwest;whiteSpace=wrap;html=1;" parent="34" vertex="1">
                    <mxGeometry y="54" width="220" height="26" as="geometry"/>
                </mxCell>
                <mxCell id="38" value="WAITING_ON_TARMAC" style="text;strokeColor=none;fillColor=none;align=left;verticalAlign=top;spacingLeft=4;spacingRight=4;overflow=hidden;rotatable=0;points=[[0,0.5],[1,0.5]];portConstraint=eastwest;whiteSpace=wrap;html=1;" parent="34" vertex="1">
                    <mxGeometry y="80" width="220" height="26" as="geometry"/>
                </mxCell>
                <mxCell id="39" value="BOARDING_WITHOUT_REFUELING" style="text;strokeColor=none;fillColor=none;align=left;verticalAlign=top;spacingLeft=4;spacingRight=4;overflow=hidden;rotatable=0;points=[[0,0.5],[1,0.5]];portConstraint=eastwest;whiteSpace=wrap;html=1;" parent="34" vertex="1">
                    <mxGeometry y="106" width="220" height="26" as="geometry"/>
                </mxCell>
                <mxCell id="40" value="BOARDING_WITH_REFUELING" style="text;strokeColor=none;fillColor=none;align=left;verticalAlign=top;spacingLeft=4;spacingRight=4;overflow=hidden;rotatable=0;points=[[0,0.5],[1,0.5]];portConstraint=eastwest;whiteSpace=wrap;html=1;" parent="34" vertex="1">
                    <mxGeometry y="132" width="220" height="26" as="geometry"/>
                </mxCell>
                <mxCell id="41" value="DEBOARDING" style="text;strokeColor=none;fillColor=none;align=left;verticalAlign=top;spacingLeft=4;spacingRight=4;overflow=hidden;rotatable=0;points=[[0,0.5],[1,0.5]];portConstraint=eastwest;whiteSpace=wrap;html=1;" parent="34" vertex="1">
                    <mxGeometry y="158" width="220" height="26" as="geometry"/>
                </mxCell>
                <mxCell id="42" value="IN_FLIGHT" style="text;strokeColor=none;fillColor=none;align=left;verticalAlign=top;spacingLeft=4;spacingRight=4;overflow=hidden;rotatable=0;points=[[0,0.5],[1,0.5]];portConstraint=eastwest;whiteSpace=wrap;html=1;" parent="34" vertex="1">
                    <mxGeometry y="184" width="220" height="26" as="geometry"/>
                </mxCell>
            </root>
        </mxGraphModel>
    </diagram>
</mxfile>